<?xml version="1.0" encoding="UTF-8" standalone="no"?>
<!DOCTYPE svg PUBLIC "-//W3C//DTD SVG 1.1//EN" "http://www.w3.org/Graphics/SVG/1.1/DTD/svg11.dtd">
<svg width="100%" height="100%" viewBox="0 0 959 447" version="1.1" xmlns="http://www.w3.org/2000/svg" xmlns:xlink="http://www.w3.org/1999/xlink" xml:space="preserve" xmlns:serif="http://www.serif.com/" style="fill-rule:evenodd;clip-rule:evenodd;stroke-linejoin:round;stroke-miterlimit:2;">
    <g transform="matrix(4.16667,0,0,4.16667,-2726.72,-1913.35)">
        <path d="M762.448,484.583C763.71,484.583 765.577,484.847 767.127,485.53C768.678,486.214 769.913,487.317 769.913,488.996L769.913,491.188L766.611,491.188L766.611,490.078C766.611,489.356 766.021,488.829 765.216,488.482C764.412,488.135 763.391,487.969 762.531,487.969C760.769,487.969 759.194,488.6 758.06,489.745C756.926,490.89 756.232,492.548 756.232,494.601C756.232,496.53 756.939,498.272 758.094,499.531C759.249,500.79 760.852,501.567 762.642,501.567C764.501,501.567 765.993,500.915 767.02,500.263C768.047,499.611 768.609,498.959 768.609,498.959L770.524,501.567C770.524,501.567 769.809,502.414 768.46,503.26C767.11,504.106 765.126,504.953 762.587,504.953C759.576,504.953 757.043,503.822 755.264,501.962C753.484,500.103 752.457,497.515 752.457,494.601C752.457,491.757 753.525,489.252 755.309,487.459C757.092,485.665 759.589,484.583 762.448,484.583" style="fill:rgb(25,64,147);fill-rule:nonzero;"/>
    </g>
    <g transform="matrix(4.16667,0,0,4.16667,-2726.72,-1890.22)">
        <path d="M778.52,484.583C780.546,484.583 782.114,485.325 783.176,486.536C784.237,487.746 784.792,489.425 784.792,491.299C784.792,491.507 784.771,491.833 784.75,492.107C784.729,492.381 784.708,492.603 784.708,492.603L774.94,492.603C775.078,493.852 775.606,494.802 776.366,495.441C777.125,496.079 778.117,496.405 779.186,496.405C780.323,496.405 781.315,496.009 782.023,495.614C782.731,495.218 783.154,494.823 783.154,494.823L784.625,497.266C784.625,497.266 784.084,497.8 783.102,498.334C782.121,498.868 780.698,499.402 778.936,499.402C776.591,499.402 774.69,498.556 773.375,497.206C772.06,495.857 771.332,494.005 771.332,491.993C771.332,489.814 772.067,487.962 773.334,486.654C774.6,485.346 776.397,484.583 778.52,484.583M781.184,490.161C781.156,489.314 780.851,488.6 780.372,488.097C779.894,487.594 779.241,487.303 778.52,487.303C777.618,487.303 776.848,487.573 776.254,488.066C775.661,488.558 775.245,489.273 775.051,490.161L781.184,490.161Z" style="fill:rgb(25,64,147);fill-rule:nonzero;"/>
    </g>
    <g transform="matrix(4.16667,0,0,4.16667,-2726.72,-1891.61)">
        <path d="M787.63,488.856C787.63,488.648 787.575,488.495 787.471,488.394C787.367,488.294 787.214,488.245 787.02,488.245L785.909,488.245L785.909,485.248L789.156,485.248C789.781,485.248 790.246,485.394 790.554,485.664C790.863,485.935 791.016,486.33 791.016,486.83L791.016,487.246C791.016,487.399 791.002,487.552 790.988,487.666C790.974,487.781 790.96,487.857 790.96,487.857L791.016,487.857C791.321,487.26 791.855,486.525 792.671,485.939C793.486,485.352 794.582,484.915 796.011,484.915C797.579,484.915 798.814,485.325 799.657,486.202C800.5,487.08 800.951,488.426 800.951,490.299L800.951,495.822C800.951,496.016 801.007,496.168 801.111,496.273C801.215,496.376 801.368,496.432 801.562,496.432L802.672,496.432L802.672,499.402L799.314,499.402C798.648,499.402 798.176,499.263 797.871,498.958C797.565,498.653 797.426,498.181 797.426,497.515L797.426,491.021C797.426,490.161 797.315,489.439 796.982,488.933C796.649,488.426 796.094,488.135 795.206,488.135C794.263,488.135 793.437,488.433 792.785,488.943C792.133,489.453 791.654,490.174 791.404,491.021C791.307,491.312 791.238,491.617 791.193,491.933C791.148,492.249 791.127,492.575 791.127,492.908L791.127,499.402L787.63,499.402L787.63,488.856Z" style="fill:rgb(25,64,147);fill-rule:nonzero;"/>
    </g>
    <g transform="matrix(4.16667,0,0,4.16667,-2726.72,-1905.71)">
        <path d="M804.684,491.437L802.852,491.437L802.852,488.634L804.767,488.634L804.767,484.777L808.209,484.777L808.209,488.634L811.428,488.634L811.428,491.437L808.209,491.437L808.209,497.154C808.209,498.319 808.667,498.985 809.246,499.36C809.825,499.735 810.526,499.818 811.012,499.818C811.206,499.818 811.366,499.804 811.477,499.79C811.588,499.777 811.65,499.763 811.65,499.763L811.65,502.843C811.65,502.843 811.539,502.864 811.348,502.884C811.157,502.905 810.887,502.926 810.567,502.926C809.582,502.926 808.111,502.78 806.887,502.041C805.662,501.302 804.684,499.97 804.684,497.598L804.684,491.437Z" style="fill:rgb(25,64,147);fill-rule:nonzero;"/>
    </g>
    <g transform="matrix(4.16667,0,0,4.16667,-2726.72,-1891.03)">
        <path d="M814.436,488.717C814.436,488.509 814.38,488.356 814.276,488.256C814.172,488.155 814.02,488.106 813.826,488.106L812.715,488.106L812.715,485.109L815.935,485.109C816.559,485.109 817.031,485.241 817.346,485.522C817.662,485.803 817.822,486.233 817.822,486.83L817.822,487.662C817.822,487.926 817.808,488.148 817.794,488.304C817.78,488.46 817.766,488.55 817.766,488.55L817.822,488.55C818.141,487.537 818.724,486.629 819.497,485.973C820.271,485.318 821.235,484.915 822.318,484.915C822.47,484.915 822.63,484.929 822.751,484.943C822.873,484.957 822.956,484.971 822.956,484.971L822.956,488.44C822.956,488.44 822.866,488.426 822.713,488.412C822.56,488.398 822.345,488.384 822.096,488.384C821.346,488.384 820.541,488.599 819.844,489.078C819.147,489.556 818.557,490.299 818.238,491.353C818.141,491.7 818.065,492.068 818.013,492.453C817.961,492.838 817.933,493.24 817.933,493.657L817.933,499.263L814.436,499.263L814.436,488.717Z" style="fill:rgb(25,64,147);fill-rule:nonzero;"/>
    </g>
    <g transform="matrix(4.16667,0,0,4.16667,-2726.72,-1890.22)">
        <path d="M831.959,490.189L832.403,490.189L832.403,490.078C832.403,489.065 832.202,488.371 831.775,487.931C831.348,487.49 830.696,487.303 829.794,487.303C829.475,487.303 829.003,487.344 828.611,487.483C828.219,487.622 827.907,487.857 827.907,488.246L827.907,488.995L824.632,488.995L824.632,487.497C824.632,486.178 825.562,485.45 826.675,485.051C827.789,484.652 829.087,484.583 829.822,484.583C832.181,484.583 833.707,485.201 834.644,486.214C835.58,487.227 835.927,488.635 835.927,490.217L835.927,495.489C835.927,495.684 835.982,495.836 836.087,495.94C836.191,496.044 836.344,496.1 836.538,496.1L837.648,496.1L837.648,499.069L834.484,499.069C833.832,499.069 833.381,498.889 833.093,498.604C832.805,498.32 832.68,497.931 832.68,497.515C832.68,497.335 832.687,497.182 832.694,497.075C832.701,496.968 832.708,496.905 832.708,496.905L832.653,496.905C832.653,496.905 832.382,497.529 831.713,498.154C831.043,498.778 829.975,499.402 828.379,499.402C827.116,499.402 825.909,499.007 825.017,498.258C824.126,497.508 823.55,496.405 823.55,494.99C823.55,492.77 825.076,491.57 826.891,490.925C828.705,490.279 830.807,490.189 831.959,490.189M829.239,496.655C830.183,496.655 830.987,496.155 831.556,495.441C832.125,494.726 832.458,493.796 832.458,492.936L832.458,492.603L831.848,492.603C830.932,492.603 829.745,492.666 828.788,492.974C827.831,493.283 827.102,493.838 827.102,494.823C827.102,495.295 827.276,495.753 827.629,496.093C827.983,496.433 828.518,496.655 829.239,496.655" style="fill:rgb(25,64,147);fill-rule:nonzero;"/>
    </g>
    <g transform="matrix(4.16667,0,0,4.16667,-2726.72,-1913.35)">
        <path d="M839.535,488.524C839.535,488.316 839.479,488.163 839.375,488.063C839.271,487.962 839.118,487.913 838.924,487.913L837.814,487.913L837.814,484.916L841.172,484.916C841.824,484.916 842.296,485.062 842.605,485.37C842.913,485.679 843.059,486.151 843.059,486.803L843.059,501.04C843.059,501.234 843.115,501.387 843.219,501.491C843.323,501.596 843.476,501.651 843.67,501.651L844.752,501.651L844.752,504.62L841.422,504.62C840.756,504.62 840.284,504.481 839.979,504.176C839.674,503.871 839.535,503.399 839.535,502.733L839.535,488.524Z" style="fill:rgb(25,64,147);fill-rule:nonzero;"/>
    </g>
    <g transform="matrix(4.16667,0,0,4.16667,-2726.72,-1891.61)">
        <path d="M847.086,488.856C847.086,488.648 847.031,488.495 846.927,488.394C846.823,488.294 846.67,488.245 846.476,488.245L845.365,488.245L845.365,485.248L848.612,485.248C849.237,485.248 849.702,485.394 850.01,485.664C850.319,485.935 850.472,486.33 850.472,486.83L850.472,487.246C850.472,487.399 850.458,487.552 850.444,487.666C850.43,487.781 850.416,487.857 850.416,487.857L850.472,487.857C850.777,487.26 851.311,486.525 852.127,485.939C852.942,485.352 854.038,484.915 855.467,484.915C857.035,484.915 858.27,485.325 859.113,486.202C859.956,487.08 860.407,488.426 860.407,490.299L860.407,495.822C860.407,496.016 860.463,496.168 860.567,496.273C860.671,496.376 860.824,496.432 861.018,496.432L862.128,496.432L862.128,499.402L858.77,499.402C858.104,499.402 857.632,499.263 857.327,498.958C857.021,498.653 856.882,498.181 856.882,497.515L856.882,491.021C856.882,490.161 856.771,489.439 856.438,488.933C856.105,488.426 855.55,488.135 854.662,488.135C853.719,488.135 852.893,488.433 852.241,488.943C851.589,489.453 851.11,490.174 850.86,491.021C850.763,491.312 850.694,491.617 850.649,491.933C850.604,492.249 850.583,492.575 850.583,492.908L850.583,499.402L847.086,499.402L847.086,488.856Z" style="fill:rgb(25,64,147);fill-rule:nonzero;"/>
    </g>
    <g transform="matrix(4.16667,0,0,4.16667,-2726.72,-1865.94)">
        <path d="M865.091,496.1C865.576,496.1 866.034,495.954 866.433,495.656C866.833,495.357 867.172,494.906 867.422,494.296L867.894,493.214L863.176,482.585C863.092,482.376 863.002,482.251 862.884,482.179C862.766,482.106 862.621,482.085 862.427,482.085L862.01,482.085L862.01,479.088L864.342,479.088C864.841,479.088 865.216,479.178 865.511,479.39C865.805,479.601 866.021,479.935 866.201,480.42L868.976,487.497C869.115,487.857 869.24,488.329 869.33,488.711C869.42,489.092 869.476,489.384 869.476,489.384L869.531,489.384C869.531,489.384 869.586,489.092 869.673,488.711C869.76,488.329 869.878,487.857 870.003,487.497L872.417,480.42C872.583,479.935 872.812,479.601 873.121,479.39C873.43,479.178 873.819,479.088 874.305,479.088L876.691,479.088L876.691,482.085L876.275,482.085C876.067,482.085 875.907,482.106 875.779,482.179C875.651,482.251 875.554,482.376 875.47,482.585L870.392,495.378C869.893,496.655 869.143,497.578 868.255,498.181C867.367,498.785 866.339,499.069 865.285,499.069C864.175,499.069 863.28,498.708 862.662,498.347C862.045,497.987 861.705,497.626 861.705,497.626L863.065,495.129C863.065,495.129 863.28,495.372 863.641,495.614C864.002,495.857 864.508,496.1 865.091,496.1" style="fill:rgb(25,64,147);fill-rule:nonzero;"/>
    </g>
    <g transform="matrix(4.16667,0,0,4.16667,-2726.72,-1713.73)">
        <path d="M754.345,464.041L752.541,464.041L752.541,460.961L761.061,460.961C762.837,460.961 764.363,461.419 765.445,462.282C766.528,463.146 767.166,464.416 767.166,466.039C767.166,467.136 766.868,468.037 766.42,468.742C765.973,469.446 765.376,469.952 764.78,470.257L764.78,470.313C765.848,470.632 766.639,471.291 767.163,472.12C767.686,472.949 767.943,473.949 767.943,474.948C767.943,476.918 767.159,478.347 765.917,479.284C764.675,480.221 762.975,480.665 761.144,480.665L756.232,480.665C755.58,480.665 755.108,480.526 754.799,480.221C754.491,479.916 754.345,479.443 754.345,478.777L754.345,464.041ZM761.089,469.009C761.852,469.009 762.448,468.731 762.854,468.277C763.26,467.822 763.475,467.191 763.475,466.483C763.475,465.775 763.267,465.165 762.858,464.731C762.448,464.298 761.838,464.041 761.033,464.041L757.98,464.041L757.98,469.009L761.089,469.009ZM758.591,477.584L761.422,477.584C762.31,477.584 763.004,477.286 763.475,476.779C763.947,476.273 764.197,475.559 764.197,474.726C764.197,473.907 763.94,473.199 763.465,472.696C762.99,472.193 762.296,471.895 761.422,471.895L757.98,471.895L757.98,476.973C757.98,477.167 758.035,477.32 758.14,477.424C758.244,477.529 758.396,477.584 758.591,477.584" style="fill:rgb(25,64,147);fill-rule:nonzero;"/>
    </g>
    <g transform="matrix(4.16667,0,0,4.16667,-2726.72,-1690.61)">
        <path d="M777.94,466.236L778.384,466.236L778.384,466.125C778.384,465.112 778.183,464.418 777.756,463.978C777.329,463.537 776.677,463.35 775.775,463.35C775.456,463.35 774.984,463.391 774.592,463.53C774.2,463.669 773.888,463.904 773.888,464.293L773.888,465.042L770.613,465.042L770.613,463.544C770.613,462.226 771.543,461.497 772.656,461.098C773.77,460.699 775.068,460.63 775.803,460.63C778.162,460.63 779.688,461.248 780.625,462.261C781.561,463.274 781.908,464.682 781.908,466.264L781.908,471.536C781.908,471.731 781.963,471.883 782.068,471.987C782.172,472.091 782.325,472.147 782.519,472.147L783.629,472.147L783.629,475.116L780.465,475.116C779.813,475.116 779.362,474.936 779.074,474.651C778.786,474.367 778.661,473.978 778.661,473.562C778.661,473.382 778.668,473.229 778.675,473.122C778.682,473.015 778.689,472.952 778.689,472.952L778.634,472.952C778.634,472.952 778.363,473.576 777.694,474.201C777.024,474.825 775.956,475.449 774.36,475.449C773.097,475.449 771.89,475.054 770.998,474.305C770.107,473.555 769.531,472.452 769.531,471.037C769.531,468.817 771.057,467.617 772.872,466.972C774.686,466.326 776.788,466.236 777.94,466.236M775.22,472.702C776.164,472.702 776.968,472.202 777.537,471.488C778.106,470.773 778.439,469.843 778.439,468.983L778.439,468.65L777.829,468.65C776.913,468.65 775.726,468.713 774.769,469.021C773.812,469.33 773.083,469.885 773.083,470.87C773.083,471.342 773.257,471.8 773.61,472.14C773.964,472.48 774.499,472.702 775.22,472.702" style="fill:rgb(25,64,147);fill-rule:nonzero;"/>
    </g>
    <g transform="matrix(4.16667,0,0,4.16667,-2726.72,-1692)">
        <path d="M785.754,464.903C785.754,464.695 785.699,464.542 785.595,464.441C785.491,464.341 785.338,464.292 785.144,464.292L784.033,464.292L784.033,461.295L787.28,461.295C787.905,461.295 788.37,461.441 788.678,461.711C788.987,461.982 789.14,462.377 789.14,462.877L789.14,463.293C789.14,463.446 789.126,463.599 789.112,463.713C789.098,463.828 789.084,463.904 789.084,463.904L789.14,463.904C789.445,463.307 789.979,462.572 790.795,461.986C791.61,461.399 792.706,460.962 794.135,460.962C795.703,460.962 796.938,461.371 797.781,462.249C798.624,463.127 799.075,464.473 799.075,466.346L799.075,471.869C799.075,472.063 799.131,472.215 799.235,472.32C799.339,472.423 799.492,472.479 799.686,472.479L800.796,472.479L800.796,475.449L797.438,475.449C796.772,475.449 796.3,475.31 795.995,475.005C795.689,474.7 795.55,474.228 795.55,473.562L795.55,467.068C795.55,466.208 795.439,465.486 795.106,464.98C794.773,464.473 794.218,464.182 793.33,464.182C792.387,464.182 791.561,464.48 790.909,464.99C790.257,465.5 789.778,466.221 789.528,467.068C789.431,467.359 789.362,467.664 789.317,467.98C789.272,468.296 789.251,468.622 789.251,468.955L789.251,475.449L785.754,475.449L785.754,464.903Z" style="fill:rgb(25,64,147);fill-rule:nonzero;"/>
    </g>
    <g transform="matrix(4.16667,0,0,4.16667,-2726.72,-1713.74)">
        <path d="M802.775,464.57C802.775,464.362 802.72,464.209 802.616,464.108C802.512,464.008 802.359,463.959 802.165,463.959L801.054,463.959L801.054,460.962L804.412,460.962C805.064,460.962 805.536,461.038 805.845,461.278C806.154,461.517 806.3,461.92 806.3,462.572L806.3,471.508L807.354,471.508C807.576,471.508 807.833,471.487 808.072,471.411C808.311,471.335 808.533,471.203 808.686,470.981L811.572,466.513L815.485,466.513L811.905,471.841C811.6,472.285 811.337,472.562 811.149,472.729C810.962,472.896 810.851,472.951 810.851,472.951L810.851,473.007C810.851,473.007 810.976,473.055 811.163,473.218C811.35,473.381 811.6,473.659 811.85,474.117L813.46,477.169C813.571,477.377 813.696,477.509 813.876,477.589C814.056,477.669 814.292,477.697 814.625,477.697L815.569,477.697L815.569,480.666L812.96,480.666C812.364,480.666 811.947,480.617 811.611,480.441C811.274,480.264 811.017,479.958 810.74,479.445L808.381,475.005C808.242,474.755 808.027,474.623 807.791,474.554C807.556,474.485 807.299,474.478 807.077,474.478L806.3,474.478L806.3,480.666L802.775,480.666L802.775,464.57Z" style="fill:rgb(25,64,147);fill-rule:nonzero;"/>
    </g>
    <g transform="matrix(4.16667,0,0,4.16667,-2726.72,-1519.99)">
        <path d="M754.372,440.792L752.569,440.792L752.569,437.712L761.588,437.712C763.434,437.712 765.002,438.357 766.108,439.481C767.215,440.605 767.86,442.207 767.86,444.122C767.86,446.037 767.215,447.66 766.108,448.805C765.002,449.95 763.434,450.616 761.588,450.616L758.008,450.616L758.008,457.416L754.372,457.416L754.372,440.792ZM760.922,447.508C761.949,447.508 762.754,447.175 763.302,446.585C763.85,445.995 764.141,445.149 764.141,444.122C764.141,443.109 763.85,442.276 763.309,441.697C762.768,441.118 761.977,440.792 760.977,440.792L758.008,440.792L758.008,447.508L760.922,447.508Z" style="fill:rgb(25,64,147);fill-rule:nonzero;"/>
    </g>
    <g transform="matrix(4.16667,0,0,4.16667,-2726.72,-1496.86)">
        <path d="M776.141,437.38C778.305,437.38 780.248,438.15 781.65,439.461C783.051,440.772 783.912,442.624 783.912,444.789C783.912,446.968 783.051,448.82 781.65,450.128C780.248,451.436 778.305,452.199 776.141,452.199C773.99,452.199 772.054,451.436 770.656,450.128C769.258,448.82 768.398,446.968 768.398,444.789C768.398,442.624 769.258,440.772 770.656,439.461C772.054,438.15 773.99,437.38 776.141,437.38M776.141,449.202C777.292,449.202 778.347,448.758 779.114,447.984C779.88,447.211 780.359,446.107 780.359,444.789C780.359,443.485 779.88,442.382 779.114,441.605C778.347,440.828 777.292,440.377 776.141,440.377C775.003,440.377 773.955,440.828 773.192,441.605C772.429,442.382 771.95,443.485 771.95,444.789C771.95,446.107 772.429,447.211 773.192,447.984C773.955,448.758 775.003,449.202 776.141,449.202" style="fill:rgb(25,64,147);fill-rule:nonzero;"/>
    </g>
    <g transform="matrix(4.16667,0,0,4.16667,-2726.72,-1498.26)">
        <path d="M786.495,441.654C786.495,441.446 786.44,441.293 786.336,441.192C786.232,441.092 786.079,441.043 785.885,441.043L784.774,441.043L784.774,438.046L788.021,438.046C788.646,438.046 789.111,438.192 789.419,438.462C789.728,438.733 789.881,439.128 789.881,439.628L789.881,440.044C789.881,440.197 789.874,440.35 789.867,440.464C789.86,440.579 789.853,440.655 789.853,440.655L789.909,440.655C790.242,439.961 790.831,439.226 791.615,438.663C792.399,438.101 793.378,437.713 794.488,437.713C795.556,437.713 796.437,437.963 797.127,438.452C797.818,438.941 798.318,439.67 798.623,440.627L798.678,440.627C799.052,439.864 799.698,439.135 800.53,438.598C801.363,438.06 802.383,437.713 803.507,437.713C804.978,437.713 806.137,438.129 806.928,439.01C807.719,439.891 808.142,441.237 808.142,443.097L808.142,448.62C808.142,448.814 808.198,448.966 808.302,449.071C808.406,449.174 808.558,449.23 808.752,449.23L809.834,449.23L809.834,452.2L806.504,452.2C805.838,452.2 805.366,452.061 805.061,451.756C804.756,451.451 804.617,450.979 804.617,450.313L804.617,443.763C804.617,442.959 804.541,442.251 804.26,441.745C803.979,441.238 803.493,440.933 802.674,440.933C801.8,440.933 801.051,441.3 800.472,441.89C799.892,442.48 799.483,443.291 799.289,444.179C799.206,444.457 799.15,444.741 799.115,445.04C799.081,445.338 799.067,445.65 799.067,445.983L799.067,452.2L795.542,452.2L795.542,443.763C795.542,443 795.487,442.292 795.219,441.776C794.952,441.259 794.474,440.933 793.627,440.933C792.739,440.933 791.997,441.3 791.421,441.894C790.845,442.486 790.436,443.305 790.214,444.207C790.145,444.485 790.089,444.769 790.051,445.064C790.013,445.359 789.992,445.664 789.992,445.983L789.992,452.2L786.495,452.2L786.495,441.654Z" style="fill:rgb(25,64,147);fill-rule:nonzero;"/>
    </g>
    <g transform="matrix(4.16667,0,0,4.16667,-2726.72,-1472.58)">
        <path d="M812.86,448.897C813.345,448.897 813.803,448.751 814.202,448.453C814.602,448.154 814.941,447.703 815.191,447.093L815.663,446.011L810.945,435.382C810.862,435.173 810.772,435.048 810.654,434.976C810.536,434.903 810.39,434.882 810.196,434.882L809.779,434.882L809.779,431.885L812.111,431.885C812.61,431.885 812.985,431.975 813.28,432.187C813.574,432.398 813.79,432.731 813.97,433.217L816.745,440.294C816.884,440.654 817.009,441.126 817.099,441.508C817.189,441.889 817.245,442.181 817.245,442.181L817.3,442.181C817.3,442.181 817.355,441.889 817.442,441.508C817.529,441.126 817.647,440.654 817.772,440.294L820.186,433.217C820.352,432.731 820.581,432.398 820.89,432.187C821.199,431.975 821.588,431.885 822.074,431.885L824.46,431.885L824.46,434.882L824.044,434.882C823.836,434.882 823.676,434.903 823.548,434.976C823.42,435.048 823.323,435.173 823.239,435.382L818.161,448.175C817.662,449.452 816.912,450.375 816.024,450.978C815.136,451.582 814.108,451.866 813.054,451.866C811.944,451.866 811.049,451.505 810.431,451.144C809.814,450.784 809.474,450.423 809.474,450.423L810.834,447.926C810.834,447.926 811.049,448.169 811.41,448.411C811.771,448.654 812.277,448.897 812.86,448.897" style="fill:rgb(25,64,147);fill-rule:nonzero;"/>
    </g>
    <g transform="matrix(4.16667,0,0,4.16667,-2726.72,-1496.87)">
        <path d="M826.922,447.371C826.922,447.371 827.373,447.891 828.126,448.411C828.879,448.932 829.933,449.452 831.14,449.452C831.682,449.452 832.16,449.341 832.504,449.112C832.847,448.883 833.055,448.536 833.055,448.065C833.055,447.066 831.189,446.573 829.323,445.758C827.456,444.943 825.59,443.805 825.59,441.515C825.59,440.1 826.228,439.066 827.234,438.386C828.24,437.706 829.614,437.38 831.085,437.38C832.043,437.38 833.285,437.54 834.287,437.987C835.29,438.435 836.053,439.17 836.053,440.322L836.053,441.793L832.944,441.793L832.944,441.099C832.944,440.766 832.694,440.516 832.347,440.35C832,440.183 831.557,440.1 831.168,440.1C830.544,440.1 830.016,440.211 829.645,440.426C829.274,440.641 829.059,440.961 829.059,441.377C829.059,442.487 830.939,442.931 832.82,443.687C834.7,444.444 836.58,445.512 836.58,447.871C836.58,449.203 835.99,450.285 835.015,451.035C834.041,451.784 832.681,452.2 831.14,452.2C829.198,452.2 827.727,451.569 826.742,450.937C825.757,450.306 825.257,449.674 825.257,449.674L826.922,447.371Z" style="fill:rgb(25,64,147);fill-rule:nonzero;"/>
    </g>
    <g transform="matrix(4.16667,0,0,4.16667,-2726.72,-1519.99)">
        <path d="M839.526,449.508L837.694,450.535L837.694,447.066L839.526,446.011L839.526,441.321C839.526,441.113 839.471,440.961 839.366,440.86C839.262,440.759 839.109,440.711 838.915,440.711L837.805,440.711L837.805,437.713L841.163,437.713C841.815,437.713 842.281,437.859 842.582,438.168C842.884,438.476 843.023,438.948 843.023,439.6L843.023,444.013L845.049,442.875L845.049,446.317L843.023,447.482L843.023,453.837C843.023,454.031 843.078,454.184 843.182,454.288C843.286,454.393 843.439,454.448 843.633,454.448L844.743,454.448L844.743,457.417L841.385,457.417C840.733,457.417 840.268,457.278 839.966,456.973C839.665,456.668 839.526,456.196 839.526,455.53L839.526,449.508Z" style="fill:rgb(25,64,147);fill-rule:nonzero;"/>
    </g>
    <g transform="matrix(4.16667,0,0,4.16667,-2726.72,-1518.49)">
        <path d="M854.393,437.38L857.779,437.38L854.865,441.154L852.284,441.154L854.393,437.38ZM853.616,442.57C855.781,442.57 857.723,443.34 859.125,444.651C860.526,445.962 861.387,447.814 861.387,449.979C861.387,452.158 860.526,454.01 859.125,455.318C857.723,456.626 855.781,457.389 853.616,457.389C851.465,457.389 849.529,456.626 848.131,455.318C846.733,454.01 845.873,452.158 845.873,449.979C845.873,447.814 846.733,445.962 848.131,444.651C849.529,443.34 851.465,442.57 853.616,442.57M853.616,454.392C854.768,454.392 855.822,453.948 856.589,453.174C857.355,452.401 857.834,451.297 857.834,449.979C857.834,448.675 857.355,447.572 856.589,446.795C855.822,446.018 854.768,445.567 853.616,445.567C852.478,445.567 851.43,446.018 850.667,446.795C849.904,447.572 849.425,448.675 849.425,449.979C849.425,451.297 849.904,452.401 850.667,453.174C851.43,453.948 852.478,454.392 853.616,454.392" style="fill:rgb(25,64,147);fill-rule:nonzero;"/>
    </g>
    <g transform="matrix(4.16667,0,0,4.16667,-2726.72,-1496.87)">
        <path d="M863.076,441.21C863.006,441.002 862.916,440.877 862.791,440.804C862.667,440.731 862.507,440.71 862.299,440.71L861.91,440.71L861.91,437.713L864.325,437.713C864.907,437.713 865.338,437.803 865.657,438.029C865.976,438.254 866.184,438.615 866.323,439.156L868.404,447.01C868.501,447.385 868.571,447.76 868.616,448.041C868.661,448.322 868.682,448.509 868.682,448.509L868.737,448.509C868.737,448.509 868.765,448.322 868.82,448.041C868.876,447.76 868.959,447.385 869.07,447.01L871.679,437.769L874.787,437.769L877.424,447.01C877.535,447.385 877.611,447.76 877.66,448.041C877.708,448.322 877.729,448.509 877.729,448.509L877.785,448.509C877.785,448.509 877.806,448.322 877.851,448.041C877.896,447.76 877.965,447.385 878.062,447.01L880.116,439.156C880.255,438.615 880.463,438.254 880.782,438.029C881.101,437.803 881.531,437.713 882.114,437.713L884.528,437.713L884.528,440.71L884.14,440.71C883.932,440.71 883.779,440.731 883.658,440.804C883.536,440.877 883.446,441.002 883.363,441.21L879.977,451.867L876.008,451.867L873.594,443.791C873.483,443.416 873.4,443.035 873.344,442.747C873.289,442.459 873.261,442.265 873.261,442.265L873.205,442.265C873.205,442.265 873.17,442.459 873.108,442.747C873.046,443.035 872.956,443.416 872.845,443.791L870.458,451.867L866.462,451.867L863.076,441.21Z" style="fill:rgb(25,64,147);fill-rule:nonzero;"/>
    </g>
    <g transform="matrix(4.16667,0,0,4.16667,-2726.72,-1744.65)">
        <path d="M709.217,499.665C713.071,498.191 716.561,495.908 719.086,493.995C721.612,492.081 723.174,490.536 723.174,490.536C714.855,496.134 704.977,495.584 696.34,491.712C687.704,487.839 680.31,480.644 676.958,472.95C673.607,465.257 674.587,458.757 676.404,454.18C678.221,449.603 680.876,446.949 680.876,446.949C680.876,446.949 671.878,451.372 665.894,459.023C659.909,466.674 656.938,477.552 668.99,490.461C670.121,491.674 671.263,492.777 672.412,493.778C673.561,494.779 674.718,495.679 675.878,496.484C680.932,499.29 686.49,500.998 692.173,501.549C697.856,502.099 703.664,501.491 709.217,499.665" style="fill:rgb(35,39,64);fill-rule:nonzero;"/>
    </g>
    <g transform="matrix(4.16667,0,0,4.16667,-2726.72,-1843.4)">
        <path d="M685.218,468.428C695.271,464.38 702.177,466.62 706.57,469.871C710.963,473.122 712.842,477.385 712.842,477.385C708.143,460.334 697.791,452.85 686.975,451.953C676.159,451.055 664.879,456.743 658.324,466.035C655.221,472.705 653.929,480.095 654.575,487.407C655.221,494.72 657.803,501.955 662.448,508.317C664.645,511.324 667.17,513.95 669.936,516.183C672.703,518.416 675.711,520.256 678.876,521.693C669.66,513.587 667.057,501.958 668.853,491.511C670.648,481.065 676.841,471.801 685.218,468.428" style="fill:rgb(37,46,120);fill-rule:nonzero;"/>
    </g>
    <g transform="matrix(4.16667,0,0,4.16667,-2726.72,-1913.98)">
        <path d="M676.851,473.583C688.993,470.297 698.399,473.603 704.201,478.934C710.003,484.266 712.201,491.624 709.925,496.443C708.208,500.079 704.127,503.504 699.661,503.685C695.195,503.866 690.342,500.804 687.082,491.466C687.082,491.466 683.948,494.709 682.529,500.03C681.111,505.351 681.408,512.749 688.272,521.059C694.31,528.368 703.666,531.527 712.675,530.407C721.683,529.286 730.344,523.886 734.992,514.077C737.396,508.896 738.325,502.479 737.552,495.804C736.779,489.13 734.305,482.2 729.906,475.992C723.94,467.573 714.007,461.898 703.238,460.028C692.468,458.159 680.861,460.095 671.547,466.897C666.58,470.523 662.65,475.039 659.813,480.066C656.975,485.093 655.232,490.631 654.64,496.3C656.195,492.435 658.661,487.591 662.282,483.296C665.903,479 670.678,475.254 676.851,473.583" style="fill:rgb(25,64,147);fill-rule:nonzero;"/>
    </g>
    <g transform="matrix(4.16667,0,0,4.16667,-2726.72,-1478.61)">
        <path d="M680.494,438.893C680.494,438.893 680.106,440.668 680.709,442.58C681.311,444.491 682.903,446.538 686.863,447.081C692.697,447.881 698.654,447.911 703.875,446.502C709.095,445.093 713.58,442.245 716.469,437.287C716.469,437.287 711.989,438.779 706.094,439.726C700.199,440.672 692.887,441.074 687.225,438.895C684.439,437.657 682.756,437.657 681.77,437.966C680.783,438.275 680.494,438.893 680.494,438.893" style="fill:rgb(35,39,64);fill-rule:nonzero;"/>
    </g>
    <g transform="matrix(4.16667,0,0,4.16667,-2726.72,-1405.84)">
        <path d="M682.874,432.235C682.874,432.235 682.436,433.451 683.008,434.827C683.579,436.203 685.16,437.739 689.199,438.376C693.239,439.014 698.811,438.162 703.695,436.369C708.579,434.576 712.775,431.843 714.063,428.719C714.063,428.719 710.302,430.188 705.256,431.31C700.21,432.432 693.879,433.207 688.74,431.818C686.193,431.004 684.727,431.108 683.897,431.416C683.067,431.724 682.874,432.235 682.874,432.235" style="fill:rgb(37,46,120);fill-rule:nonzero;"/>
    </g>
    <g transform="matrix(4.16667,0,0,4.16667,-2726.72,-1341.04)">
        <path d="M691.917,425.171C691.917,425.171 694.071,425.135 696.703,424.826C699.334,424.518 702.443,423.937 704.354,422.847C704.354,422.847 704.172,423.813 703.402,424.997C702.631,426.181 701.271,427.584 698.916,428.459C696.562,429.335 694.595,428.914 693.325,428.073C692.055,427.233 691.482,425.973 691.917,425.171" style="fill:rgb(25,64,147);fill-rule:nonzero;"/>
    </g>
</svg>
