<svg viewBox="0 0 90.032 83.116" xmlns="http://www.w3.org/2000/svg" width="140.624" height="55.101">
    <path d="M52.604 44.564l-1.952-2.496c-4.824-6.172 5.733-17.106-3.157-28.478-6.993-8.945-19.016-7.032-26.78-.963a25.967 25.967 0 00-9.995 17.081l13.002 2.913s.928-5.53 4.256-8.132c2.635-2.06 6.279-2.115 8.122.243 4.554 5.825-5.035 15.997 2.286 25.361l2.71 3.467z"></path><path d="M52.604 44.564l-1.952-2.496c-4.824-6.172 5.733-17.106-3.157-28.478-6.993-8.945-19.016-7.032-26.78-.963a25.967 25.967 0 00-9.995 17.081l13.002 2.913s.928-5.53 4.256-8.132c2.635-2.06 6.279-2.115 8.122.243 4.554 5.825-5.035 15.997 2.286 25.361l2.71 3.467z"></path><path d="M64.314 60.1l-8.131-10.402-10.954 8.563 8.132 10.401z"></path><path d="M64.314 60.1l-8.131-10.402-10.954 8.563 8.132 10.401z"></path><path d="M80.958 38.666l-.513-1.912c-1.269-4.734 7.476-8.44 5.14-17.153-1.838-6.854-9.221-8.69-15.172-7.095a16.228 16.228 0 00-9.926 7.389l6.767 4.848.08-.124.098-.14c.527-.739 2.169-2.818 4.255-3.377 2.02-.542 4.124.318 4.608 2.124 1.197 4.463-6.803 7.975-4.88 15.147l.713 2.657z"></path><path d="M80.958 38.666l-.513-1.912c-1.269-4.734 7.476-8.44 5.14-17.153-1.838-6.854-9.221-8.69-15.172-7.095a16.228 16.228 0 00-9.926 7.389l6.767 4.848.08-.124.098-.14c.527-.739 2.169-2.818 4.255-3.377 2.02-.542 4.124.318 4.608 2.124 1.197 4.463-6.803 7.975-4.88 15.147l.713 2.657z"></path><path d="M83.894 50.465l-2.136-7.97-8.395 2.251 2.137 7.97z"></path><path d="M83.894 50.465l-2.136-7.97-8.395 2.251 2.137 7.97z"></path><path d="M31.696 69.722l-1.78-.868c-4.403-2.149-1.463-11.174-9.57-15.129-6.38-3.113-12.606 1.254-15.307 6.79a16.226 16.226 0 00-.94 12.337l8.098-1.923s-.992-3.36.166-5.733c.916-1.879 2.946-2.902 4.626-2.082 4.153 2.026 1.552 10.365 8.225 13.62l2.472 1.207z"></path><path d="M31.696 69.722l-1.78-.868c-4.403-2.149-1.463-11.174-9.57-15.129-6.38-3.113-12.606 1.254-15.307 6.79a16.226 16.226 0 00-.94 12.337l8.098-1.923s-.992-3.36.166-5.733c.916-1.879 2.946-2.902 4.626-2.082 4.153 2.026 1.552 10.365 8.225 13.62l2.472 1.207z"></path><path d="M42.524 75.25l-7.414-3.618-3.811 7.81 7.414 3.618z"></path><path d="M42.524 75.25l-7.414-3.618-3.811 7.81 7.414 3.618z"></path>
</svg>