<?xml version="1.0" encoding="utf-8"?>
<!-- Generator: Adobe Illustrator 16.0.0, SVG Export Plug-In . SVG Version: 6.00 Build 0)  -->
<!DOCTYPE svg PUBLIC "-//W3C//DTD SVG 1.1//EN" "http://www.w3.org/Graphics/SVG/1.1/DTD/svg11.dtd">
<svg version="1.1" id="Layer_1" xmlns="http://www.w3.org/2000/svg" xmlns:xlink="http://www.w3.org/1999/xlink" x="0px" y="0px"
	 width="346px" height="157px" viewBox="0 0 346 157" enable-background="new 0 0 346 157" xml:space="preserve">
<g>
	<path fill="#FFFFFF" d="M128.639,122.938l-10.317-97.135l-97.979,10.21c-4.348,0.454-7.529,4.382-7.068,8.728l9.456,89.239
		c0.46,4.348,4.395,7.533,8.743,7.08l90.098-9.394C125.919,131.213,129.1,127.284,128.639,122.938z M47.503,100.688
		c-0.471-0.697-0.612-1.547-0.395-2.349l4.368-16.819c-0.542,0.1-1.019,0.28-1.417,0.555c-0.872,0.605-1.342,1.639-1.318,2.889
		c0.022,1.68-1.377,3.061-3.161,3.07c-1.778,0.047-3.238-1.279-3.268-2.98c-0.046-3.219,1.375-6.08,3.932-7.869
		c2.775-1.918,6.394-2.328,10.213-1.137c1.596,0.505,2.521,2.074,2.121,3.619l-4.287,16.447c0.632-0.09,1.466-0.182,2.575-0.242
		c1.779-0.098,3.292,1.184,3.4,2.846c0.096,1.682-1.261,3.117-3.029,3.225c-1.104,0.045-1.813,0.146-2.444,0.24
		c-0.768,0.109-1.421,0.197-2.181,0.197c-0.798,0-1.72-0.088-3.022-0.35C48.717,101.869,47.981,101.379,47.503,100.688z
		 M61.262,78.095c-0.635-1.563,0.18-3.315,1.839-3.92c1.657-0.603,3.518,0.165,4.154,1.725c1.151,2.816,1.778,6.4,2.046,10.15
		c1.256-0.327,2.479-0.647,3.699-0.95c0.441-3.145,1.188-6.229,2.387-8.867c0.708-1.539,2.595-2.24,4.226-1.573
		c1.626,0.669,2.379,2.452,1.67,3.991c-0.634,1.387-1.142,3.059-1.533,5.014c1.815-0.313,3.618-0.543,5.449-0.662
		c1.779-0.121,3.29,1.146,3.421,2.812c0.111,1.66-1.223,3.115-2.989,3.235c-2.187,0.136-4.4,0.472-6.66,0.945
		c-0.178,2.998-0.136,6.312,0.112,9.817c0.12,1.678-1.217,3.117-2.988,3.24h-0.222c-1.667,0-3.09-1.234-3.206-2.822
		c-0.162-2.297-0.296-5.367-0.191-8.713c-0.99,0.267-1.997,0.531-3.04,0.816c-0.064,2.787-0.274,5.463-0.567,7.793
		c-0.223,1.646-1.814,2.846-3.582,2.646c-1.762-0.215-3.013-1.709-2.805-3.389c0.234-1.769,0.389-3.57,0.468-5.361
		c-0.444,0.125-0.911,0.231-1.372,0.34c-1.716,0.408-3.469-0.563-3.901-2.176c-0.446-1.623,0.589-3.291,2.309-3.719
		c1.016-0.24,1.997-0.478,2.972-0.732C62.769,83.783,62.195,80.35,61.262,78.095z M92.342,83.184
		c-0.958-1.384-2.789-2.062-5.158-1.927c-1.771,0.103-3.299-1.163-3.407-2.828c-0.104-1.68,1.242-3.117,3.015-3.223
		c4.685-0.279,8.663,1.419,10.91,4.638c2.083,3,2.292,6.909,0.537,10.174c-1.848,3.438-5.462,5.756-10.174,6.602l-0.169,3.119
		c-0.091,1.613-1.509,2.871-3.203,2.871h-0.17c-1.77-0.092-3.146-1.512-3.044-3.182l0.311-5.677
		c0.076-1.558,1.394-2.778,3.035-2.871c3.749-0.18,6.541-1.491,7.674-3.588C93.227,85.93,93.154,84.374,92.342,83.184z
		 M87.072,115.309c-0.842,0.707-2.553,1.844-5.027,2.07c0.115,1.119,0.041,2.268-0.223,3.389c-0.957,4.021-4.333,7.447-9.513,9.646
		c-0.431,0.199-0.877,0.281-1.316,0.281h-0.099c-0.472,0.012-0.952-0.063-1.425-0.281c-5.139-2.191-8.499-5.625-9.465-9.646
		c-0.262-1.147-0.34-2.313-0.217-3.453c-2.3-0.121-3.932-0.953-4.927-1.637c-2.85-2.008-4.292-5.654-3.675-9.313
		c0.28-1.67,1.922-2.791,3.675-2.531c1.749,0.268,2.946,1.813,2.666,3.484c-0.236,1.406,0.24,2.846,1.165,3.49
		c1.393,0.969,3.725,0.146,4.992-0.443c1.361-0.615,3.013-0.252,3.946,0.883c0.928,1.133,0.88,2.746-0.101,3.826
		c-1.158,1.287-1.61,2.834-1.25,4.363c0.449,1.844,2.062,3.553,4.617,4.881c2.59-1.344,4.212-3.037,4.649-4.881
		c0.361-1.472-0.084-2.984-1.235-4.252c-0.989-1.123-1.017-2.748-0.042-3.879c0.974-1.132,2.659-1.463,4.02-0.771
		c1.916,0.971,3.399,1.076,4.436,0.305c1.108-0.838,1.413-2.33,1.298-2.756c-0.642-1.57,0.185-3.311,1.839-3.912
		c1.662-0.598,3.521,0.178,4.17,1.75C91.205,108.826,89.911,112.945,87.072,115.309z M109.306,90.389
		c-1.879,6.424-7.188,11.133-14.56,12.883c-0.262,0.08-0.518,0.109-0.785,0.109c-1.438,0-2.746-0.926-3.103-2.303
		c-0.435-1.619,0.597-3.266,2.322-3.676c5.141-1.225,8.657-4.314,9.932-8.652c1.35-4.635-0.087-9.824-3.683-13.213
		c-3.734-3.522-9.248-4.537-15.54-2.904c-1.305,0.335-2.693-0.144-3.469-1.177c-0.788-1.034-0.799-2.44-0.024-3.48
		c2.233-3.034,2.729-7.465,1.35-11.866c-1.649-5.192-5.562-9.444-10.853-11.787c-5.291,2.343-9.213,6.595-10.857,11.787
		c-1.383,4.401-0.887,8.832,1.347,11.866c0.788,1.04,0.773,2.459-0.028,3.505c-0.804,1.049-2.217,1.497-3.518,1.135
		c-10.76-3.028-16.957,1.592-19.181,6.902c-2.111,5.073-1.149,11.951,4.784,14.737c1.599,0.735,2.239,2.558,1.443,4.074
		c-0.783,1.481-2.721,2.094-4.296,1.358c-8.228-3.875-11.618-13.483-7.91-22.398c2.654-6.352,9.527-12.544,20.745-11.629
		c-0.877-3.513-0.751-7.45,0.465-11.294c2.311-7.32,8.031-13.21,15.702-16.111c0.427-0.185,0.875-0.244,1.302-0.23
		c0.434-0.014,0.874,0.046,1.301,0.23c7.676,2.901,13.392,8.791,15.706,16.111c1.235,3.908,1.348,7.903,0.419,11.444
		c6.122-0.292,11.545,1.557,15.656,5.43C109.173,76.142,111.258,83.664,109.306,90.389z"/>
	<path fill="#FFFFFF" d="M127.876,52.804l10.101-18.063c0.922-1.603,1.758-2.593,1.758-2.593l-0.008-0.075c0,0-0.774,0.158-2,0.286
		l-6.399,0.672c-0.521,0.056-0.787,0.383-0.731,0.905l0.167,1.599l-4.427,0.466l-0.422-4.019c-0.185-1.748,0.477-2.607,2.265-2.795
		l17.149-1.802l0.32,3.05l-10.097,18.101c-0.917,1.638-1.758,2.591-1.758,2.591l0.008,0.074c0,0,0.773-0.155,2.002-0.285
		l7.216-0.759c0.522-0.054,0.788-0.384,0.732-0.904l-0.168-1.6l4.39-0.461l0.422,4.019c0.188,1.785-0.477,2.609-2.263,2.796
		l-17.932,1.885L127.876,52.804L127.876,52.804z M149.876,39.169c-0.247-0.539-0.555-0.618-1.114-0.56l-0.52,0.055l-0.423-4.019
		l3.237-0.339c1.562-0.165,2.358,0.24,2.881,1.652l3.897,10.235c0.365,0.977,0.583,1.969,0.583,1.969l0.074-0.007
		c0,0,0.043-1.021,0.236-2.055l2.196-12.756l4.167-0.439l4.835,12.018c0.404,0.973,0.621,1.964,0.621,1.964l0.074-0.006
		c0,0,0.006-1.016,0.161-2.047l1.646-10.818c0.22-1.49,0.914-2.052,2.476-2.217l3.236-0.34l0.424,4.019l-0.521,0.054
		c-0.561,0.059-0.807,0.198-0.971,0.78l-3.038,14.762l-5.319,0.56l-4.375-10.486c-0.403-0.974-0.662-2.001-0.662-2.001l-0.075,0.008
		c0,0-0.077,1.063-0.268,2.099l-2.062,11.162l-5.358,0.564L149.876,39.169L149.876,39.169z M181.188,23.617l4.092-0.43l0.459,4.353
		l-4.092,0.429L181.188,23.617L181.188,23.617z M182.257,35.916c-0.06-0.558-0.384-0.786-0.905-0.731l-1.488,0.158l-0.422-4.02
		l4.502-0.474c1.748-0.184,2.574,0.52,2.76,2.268l1.224,11.645c0.054,0.521,0.382,0.787,0.903,0.733l1.488-0.158l0.418,3.982
		l-4.502,0.473c-1.748,0.185-2.569-0.482-2.758-2.267L182.257,35.916L182.257,35.916z M200.145,45.058
		c2.528-0.265,4.032-3.133,3.791-5.439l-0.047-0.447l-0.818,0.087c-2.457,0.257-6.322,1.04-6.051,3.643
		C197.152,44.168,198.207,45.261,200.145,45.058L200.145,45.058z M202.952,35.999l0.521-0.055l-0.015-0.149
		c-0.286-2.717-1.472-3.608-3.892-3.352c-0.854,0.09-2.504,0.488-2.395,1.531l0.105,1.004l-4.392,0.461l-0.211-2.009
		c-0.366-3.498,4.575-4.431,6.548-4.638c6.324-0.666,8.53,2.452,8.977,6.691l0.744,7.069c0.055,0.52,0.385,0.787,0.904,0.731
		l1.486-0.155l0.421,3.982c-0.646,0.668-1.894,2.04-1.778,3.12c0.125,1.19,1.963,1.148,1.963,1.148l-0.748,3.614
		c0,0-4.619,0.071-4.953-3.091c-0.197-1.897,1.039-3.379,2.027-4.349l-0.009-0.075l-0.931,0.097
		c-1.674,0.176-2.387-0.876-2.477-1.732l-0.02-0.187c-0.045-0.408-0.004-0.751-0.004-0.751l-0.075,0.008
		c0,0-1.024,3.493-5.451,3.959c-3.46,0.362-6.634-1.562-7.021-5.245C191.652,37.638,199.789,36.332,202.952,35.999L202.952,35.999z
		 M213.2,44.4l7.62-11.598c0.742-1.169,1.414-1.915,1.414-1.915l-0.006-0.075c0,0-0.551,0.133-1.742,0.258l-3.42,0.36
		c-0.522,0.054-0.789,0.384-0.733,0.904l0.112,1.08l-4.277,0.45l-0.355-3.386c-0.184-1.749,0.479-2.608,2.264-2.795l13.915-1.463
		l0.271,2.566l-7.621,11.597c-0.746,1.133-1.416,1.917-1.416,1.917l0.008,0.075c0,0,0.547-0.171,1.774-0.301l4.166-0.438
		c0.521-0.055,0.792-0.345,0.733-0.902l-0.11-1.043l4.278-0.45l0.352,3.349c0.188,1.785-0.479,2.606-2.225,2.791l-14.733,1.548
		L213.2,44.4L213.2,44.4z M244.241,31.622c-0.313-2.262-2.04-3.66-3.974-3.457c-2.42,0.254-3.979,1.886-4.248,4.32L244.241,31.622
		L244.241,31.622z M239.884,24.517c5.433-0.569,8.827,3.099,9.354,8.121c0.059,0.558,0.072,1.76,0.072,1.76l-13.097,1.376
		c0.726,3.311,3.363,4.8,6.228,4.499c3.052-0.32,5.099-2.68,5.099-2.68l2.315,3.067c0,0-2.603,3.171-7.325,3.668
		c-6.287,0.66-10.671-3.469-11.237-8.864C230.68,29.622,234.191,25.116,239.884,24.517L239.884,24.517z M252.492,21.012
		c-0.061-0.558-0.385-0.787-0.906-0.733l-1.486,0.156l-0.423-4.016l4.501-0.475c1.748-0.183,2.573,0.144,2.758,1.892l1.26,11.979
		l1.412-0.149c0.596-0.062,1.365-0.254,1.711-0.894l3.24-6.396l5.246-0.551l-4.049,7.647c-0.693,1.277-1.258,1.637-1.258,1.637
		l0.008,0.075c0,0,0.697,0.19,1.496,1.346l2.589,3.867c0.354,0.526,0.742,0.635,1.636,0.542l1.267-0.133l0.417,3.982l-3.496,0.366
		c-1.602,0.169-2.262-0.023-3.148-1.324l-3.789-5.619c-0.44-0.631-1.226-0.587-1.82-0.524l-1.041,0.11l0.871,8.297l-4.725,0.496
		L252.492,21.012L252.492,21.012z M132.489,69.122c-0.055-0.521-0.383-0.788-0.904-0.734l-1.599,0.168l-0.435-4.129l4.762-0.5
		c1.785-0.188,2.611,0.515,2.796,2.263l0.911,8.668l11.645-1.224l-0.911-8.668c-0.185-1.749,0.514-2.612,2.263-2.795l4.762-0.501
		l0.434,4.128l-1.599,0.169c-0.521,0.055-0.788,0.383-0.734,0.905l2.256,21.467l-4.873,0.513l-1.166-11.088l-11.645,1.225
		l1.166,11.086l-4.873,0.514L132.489,69.122L132.489,69.122z M167.962,83.824c2.529-0.266,4.035-3.133,3.791-5.44l-0.046-0.446
		l-0.819,0.086c-2.456,0.259-6.326,1.003-6.049,3.645C164.972,82.936,166.027,84.027,167.962,83.824L167.962,83.824z
		 M170.697,74.772l0.594-0.063l-0.015-0.148c-0.286-2.717-1.471-3.609-3.889-3.353c-0.855,0.09-2.506,0.489-2.396,1.53l0.105,1.005
		l-4.391,0.461l-0.211-2.009c-0.37-3.534,4.575-4.431,6.547-4.638c6.325-0.666,8.531,2.452,8.979,6.691l0.744,7.07
		c0.055,0.52,0.383,0.787,0.903,0.731l1.487-0.157l0.42,3.981l-4.241,0.444c-1.748,0.185-2.521-0.713-2.638-1.828
		c-0.051-0.481-0.048-0.823-0.048-0.823l-0.075,0.008c0,0-1.1,3.503-5.376,3.953c-3.386,0.354-6.697-1.442-7.096-5.235
		C159.475,76.439,167.609,75.097,170.697,74.772L170.697,74.772z M181.883,71.339c-0.06-0.559-0.384-0.787-0.904-0.733l-1.486,0.157
		l-0.424-4.018l4.315-0.455c1.673-0.177,2.604,0.442,2.771,2.042l0.119,1.116c0.074,0.708,0.049,1.198,0.049,1.198l0.076-0.008
		c0.568-2.806,2.611-5.202,5.514-5.508c0.408-0.042,0.863-0.015,0.863-0.015l0.49,4.651c0,0-0.492-0.026-1.162,0.045
		c-2.011,0.211-4.195,1.608-4.754,4.523c-0.162,0.958-0.201,2.017-0.084,3.13l0.791,7.519l-4.688,0.492L181.883,71.339
		L181.883,71.339z M204.43,63.628c2.454-0.258,6.988,0.282,7.332,3.556l0.235,2.231l-4.167,0.438l-0.109-1.04
		c-0.109-1.042-1.72-1.324-2.873-1.203c-3.271,0.342-5.354,3.082-4.994,6.506c0.406,3.87,3.479,5.541,6.528,5.218
		c3.237-0.34,5.347-3.156,5.347-3.156l2.316,3.066c0,0-2.468,3.719-7.638,4.262c-6.251,0.658-10.734-3.348-11.313-8.854
		C194.531,69.295,197.92,64.312,204.43,63.628L204.43,63.628z M228.059,68.706c-0.313-2.262-2.041-3.661-3.976-3.458
		c-2.419,0.254-3.978,1.885-4.247,4.32L228.059,68.706L228.059,68.706z M223.699,61.602c5.432-0.569,8.828,3.099,9.355,8.122
		c0.057,0.557,0.07,1.758,0.07,1.758l-13.098,1.376c0.727,3.311,3.365,4.801,6.229,4.498c3.05-0.32,5.097-2.679,5.097-2.679
		l2.315,3.067c0,0-2.601,3.171-7.325,3.669c-6.287,0.659-10.671-3.469-11.236-8.863C214.495,66.708,218.008,62.2,223.699,61.602
		L223.699,61.602z M237.238,65.521c-0.061-0.559-0.385-0.788-0.904-0.732l-1.486,0.155l-0.425-4.017l4.315-0.454
		c1.674-0.177,2.604,0.44,2.771,2.041l0.117,1.116c0.075,0.708,0.051,1.199,0.051,1.199l0.075-0.009
		c0.569-2.805,2.612-5.203,5.513-5.507c0.41-0.042,0.865-0.016,0.865-0.016l0.488,4.652c0,0-0.491-0.025-1.161,0.046
		c-2.01,0.211-4.194,1.608-4.754,4.523c-0.162,0.958-0.202,2.015-0.083,3.13l0.789,7.517l-4.688,0.491L237.238,65.521
		L237.238,65.521z M253.492,72.013c0,0,2.711,2.537,5.947,2.197c1.451-0.153,2.504-0.866,2.371-2.131
		c-0.281-2.678-10.285-1.589-10.931-7.728c-0.399-3.794,2.839-5.904,6.782-6.317c2.566-0.271,6.75,0.156,7.074,3.243l0.207,1.973
		l-4.166,0.437l-0.098-0.929c-0.095-0.894-1.479-1.2-2.521-1.09c-1.674,0.175-2.766,0.894-2.648,2.009
		c0.314,2.977,10.334,1.321,10.997,7.646c0.376,3.572-2.553,6.137-6.68,6.571c-5.21,0.547-8.244-2.557-8.244-2.557L253.492,72.013
		L253.492,72.013z M269.936,60.993l-2.455,0.257l-0.396-3.756l2.567-0.269l-0.543-5.172l4.611-0.485l0.545,5.171l4.315-0.452
		l0.396,3.756l-4.315,0.454l0.805,7.664c0.328,3.126,2.831,3.314,4.132,3.177c0.522-0.054,0.851-0.165,0.851-0.165l0.434,4.129
		c0,0-0.584,0.175-1.438,0.265c-2.643,0.277-7.969,0.049-8.639-6.313L269.936,60.993L269.936,60.993z M282.198,60.644
		c-0.245-0.536-0.554-0.618-1.112-0.559l-0.521,0.054l-0.424-4.019l3.237-0.339c1.563-0.165,2.358,0.24,2.883,1.651l3.896,10.236
		c0.364,0.978,0.583,1.969,0.583,1.969l0.074-0.008c0,0,0.043-1.017,0.235-2.055l2.194-12.756l4.167-0.439l4.836,12.018
		c0.404,0.974,0.621,1.965,0.621,1.965l0.074-0.008c0,0,0.005-1.015,0.16-2.047l1.646-10.818c0.22-1.489,0.915-2.052,2.476-2.217
		l3.237-0.34l0.424,4.019l-0.521,0.055c-0.559,0.058-0.808,0.198-0.973,0.779l-3.036,14.762l-5.32,0.56l-4.374-10.486
		c-0.403-0.973-0.661-2-0.661-2l-0.075,0.008c0,0-0.075,1.062-0.269,2.097l-2.063,11.163l-5.355,0.564L282.198,60.644
		L282.198,60.644z M321.156,67.722c2.528-0.266,4.035-3.133,3.791-5.439l-0.047-0.447l-0.817,0.086
		c-2.457,0.258-6.327,1.004-6.049,3.644C318.166,66.833,319.222,67.925,321.156,67.722L321.156,67.722z M323.892,58.67l0.595-0.062
		l-0.015-0.147c-0.286-2.718-1.472-3.609-3.89-3.354c-0.855,0.089-2.506,0.49-2.396,1.532l0.105,1.004l-4.391,0.459l-0.212-2.008
		c-0.37-3.534,4.574-4.432,6.547-4.638c6.324-0.664,8.531,2.453,8.979,6.693l0.744,7.07c0.054,0.519,0.383,0.785,0.904,0.729
		l1.486-0.156l0.419,3.982l-4.24,0.446c-1.748,0.183-2.521-0.714-2.639-1.83c-0.05-0.484-0.049-0.824-0.049-0.824l-0.075,0.008
		c0,0-1.099,3.502-5.376,3.952c-3.386,0.355-6.694-1.441-7.095-5.236C312.671,60.338,320.804,58.994,323.892,58.67L323.892,58.67z
		 M145.809,111.379c2.752-0.289,4.127-2.238,3.837-4.992c-0.285-2.717-2.032-4.299-4.709-4.018l-3.982,0.418l0.946,9.004
		L145.809,111.379L145.809,111.379z M136.082,103.301l-2.418,0.252l-0.434-4.129l12.092-1.271c4.948-0.52,8.771,2.576,9.31,7.709
		c0.542,5.138-2.542,9.07-7.492,9.593l-4.799,0.504l0.958,9.114l-4.875,0.513L136.082,103.301L136.082,103.301z M167.698,118.896
		c3.088-0.326,5.405-2.978,5.034-6.51c-0.368-3.498-3.19-5.648-6.276-5.322c-3.052,0.322-5.365,3.01-4.996,6.506
		C161.831,117.105,164.648,119.217,167.698,118.896L167.698,118.896z M166.032,103.047c5.805-0.609,10.852,3.035,11.462,8.84
		c0.611,5.84-3.568,10.418-9.374,11.027c-5.765,0.605-10.81-3.002-11.424-8.842C156.086,108.268,160.267,103.652,166.032,103.047
		L166.032,103.047z M180.091,99.389c-0.06-0.559-0.384-0.789-0.905-0.734l-1.485,0.158l-0.425-4.018l4.502-0.475
		c1.748-0.182,2.613,0.516,2.797,2.264l2.007,19.086c0.056,0.521,0.383,0.787,0.903,0.73l1.449-0.15l0.42,3.98l-4.463,0.469
		c-1.787,0.188-2.609-0.477-2.795-2.264L180.091,99.389L180.091,99.389z M192.736,113.781c0,0,2.712,2.537,5.949,2.195
		c1.449-0.15,2.502-0.861,2.371-2.129c-0.283-2.679-10.285-1.591-10.932-7.729c-0.398-3.793,2.84-5.904,6.782-6.318
		c2.567-0.271,6.75,0.158,7.073,3.244l0.207,1.974l-4.166,0.438l-0.098-0.928c-0.094-0.896-1.48-1.199-2.521-1.09
		c-1.674,0.176-2.766,0.891-2.647,2.006c0.313,2.979,10.332,1.322,10.998,7.647c0.375,3.572-2.553,6.136-6.683,6.568
		c-5.209,0.549-8.243-2.556-8.243-2.556L192.736,113.781L192.736,113.781z M208.29,96.424c-0.06-0.559-0.386-0.787-0.905-0.732
		l-1.488,0.156l-0.422-4.018l4.502-0.475c1.748-0.183,2.571,0.146,2.756,1.895l1.26,11.979l1.412-0.149
		c0.598-0.062,1.367-0.257,1.714-0.894l3.237-6.396l5.248-0.554l-4.049,7.648c-0.693,1.277-1.259,1.637-1.259,1.637l0.009,0.074
		c0,0,0.696,0.189,1.495,1.348l2.589,3.865c0.354,0.527,0.741,0.635,1.637,0.543l1.264-0.135l0.419,3.982l-3.496,0.367
		c-1.601,0.168-2.261-0.025-3.149-1.324l-3.787-5.619c-0.442-0.631-1.228-0.586-1.821-0.523l-1.041,0.109l0.871,8.297l-4.724,0.496
		L208.29,96.424L208.29,96.424z M228.874,89.371l4.091-0.43l0.459,4.354l-4.092,0.43L228.874,89.371L228.874,89.371z
		 M229.941,101.672c-0.059-0.561-0.385-0.787-0.905-0.734l-1.488,0.158l-0.422-4.018l4.501-0.475c1.75-0.185,2.576,0.52,2.76,2.27
		l1.225,11.643c0.055,0.523,0.383,0.787,0.904,0.734l1.487-0.158l0.417,3.98l-4.501,0.475c-1.747,0.184-2.569-0.484-2.758-2.268
		L229.941,101.672L229.941,101.672z M252.456,101.523c-0.313-2.26-2.041-3.658-3.976-3.455c-2.42,0.254-3.978,1.887-4.248,4.318
		L252.456,101.523L252.456,101.523z M248.1,94.42c5.432-0.568,8.826,3.1,9.354,8.121c0.059,0.557,0.072,1.76,0.072,1.76
		l-13.098,1.375c0.725,3.311,3.364,4.801,6.229,4.498c3.051-0.32,5.097-2.678,5.097-2.678l2.316,3.068c0,0-2.603,3.168-7.325,3.666
		c-6.287,0.66-10.673-3.469-11.237-8.863C238.895,99.525,242.406,95.018,248.1,94.42L248.1,94.42z M274.132,101.277
		c-0.454-4.316-2.731-5.244-5.3-4.973c-2.864,0.301-4.207,2.549-3.871,5.748c0.35,3.313,2.28,5.59,5.331,5.27
		C272.563,107.084,274.583,105.555,274.132,101.277L274.132,101.277z M267.592,92.373c4.391-0.461,6.123,2.066,6.123,2.066
		l0.073-0.01c0,0-0.022-0.222-0.052-0.484c-0.09-0.854,0.412-1.811,1.9-1.969l4.391-0.459l0.423,4.018l-1.452,0.152
		c-0.482,0.051-0.79,0.346-0.739,0.83l1.372,13.059c0.684,6.51-4.117,9.498-9.064,10.018c-2.381,0.25-4.979-0.154-6.905-0.93
		l1.06-3.871c0,0,2.477,1.016,5.377,0.711c2.866-0.301,5.229-1.789,4.871-5.213l-0.094-0.893c-0.049-0.447-0.068-1.01-0.068-1.01
		l-0.074,0.008c-0.948,1.719-2.494,2.746-5.023,3.012c-5.434,0.572-8.982-3.494-9.529-8.703
		C259.631,97.496,262.124,92.947,267.592,92.373L267.592,92.373z M293.996,105.619c3.088-0.324,5.405-2.973,5.033-6.508
		c-0.367-3.496-3.189-5.646-6.276-5.322c-3.051,0.322-5.364,3.01-4.995,6.508C288.128,103.832,290.945,105.939,293.996,105.619
		L293.996,105.619z M292.33,89.771c5.805-0.609,10.852,3.035,11.462,8.84c0.613,5.84-3.569,10.418-9.374,11.027
		c-5.768,0.606-10.811-3.002-11.424-8.843C282.384,94.992,286.563,90.377,292.33,89.771L292.33,89.771z"/>
</g>
</svg>
